<svg width="92" height="92" viewBox="0 0 92 92" fill="none" xmlns="http://www.w3.org/2000/svg">
<rect width="92" height="92" rx="24" fill="white"/>
<path d="M56.0057 70H37.0057V76H56.0057V70Z" fill="black"/>
<path d="M56.0057 70H37.0057V76H56.0057V70Z" fill="url(#paint0_linear_6205_823)"/>
<path d="M29.1727 16.4522L15.7376 29.8872L19.2732 33.4227L32.7082 19.9877L29.1727 16.4522Z" fill="black"/>
<path d="M29.1727 16.4522L15.7376 29.8872L19.2732 33.4227L32.7082 19.9877L29.1727 16.4522Z" fill="url(#paint1_linear_6205_823)"/>
<path d="M63.1127 16.3219L59.5771 19.8574L73.0122 33.2925L76.5477 29.757L63.1127 16.3219Z" fill="black"/>
<path d="M63.1127 16.3219L59.5771 19.8574L73.0122 33.2925L76.5477 29.757L63.1127 16.3219Z" fill="url(#paint2_linear_6205_823)"/>
<path d="M58.5563 23.7065L55.865 23.5924C55.089 23.4829 54.2981 23.5552 53.5548 23.8036C52.8115 24.0521 52.1361 24.4699 51.5819 25.024L46.0774 30.5285L40.3239 24.775C39.8243 24.2869 39.2011 23.9443 38.5213 23.7842C37.8415 23.624 37.1309 23.6523 36.466 23.866C35.8388 24.0568 35.1715 24.0735 34.5355 23.9144C33.8994 23.7554 33.3186 23.4265 32.855 22.9629L32.0011 22.109L21.3945 32.7156L23.1225 34.4436L23.0084 37.1348C22.8988 37.9108 22.9712 38.7017 23.2196 39.445C23.468 40.1884 23.8858 40.8638 24.44 41.418L34.0524 51.0304C34.1809 49.7686 34.7855 48.6032 35.7431 47.7715L32.7482 44.7765L33.4553 44.0695L36.5835 47.1977C37.0269 46.9452 37.5067 46.7629 38.0059 46.6571V42.9632L36.2837 41.241L36.9908 40.5339L38.0059 41.5489V36.1991C37.9947 35.3148 38.3086 34.4572 38.8878 33.789C39.4671 33.1208 40.2715 32.6885 41.1484 32.5741C41.4792 32.542 41.8128 32.5571 42.1392 32.6189L40.9097 31.3894L41.6169 30.6823L43.413 32.4785C43.7311 31.8621 44.2232 31.3527 44.8283 31.0135C45.4333 30.6742 46.1246 30.5201 46.8164 30.5702C47.6513 30.6677 48.4258 31.0542 49.0056 31.6628C49.5854 32.2713 49.9341 33.0636 49.9912 33.9022C50.5595 33.632 51.1893 33.5175 51.8164 33.5702C52.7075 33.6768 53.5272 34.1107 54.1165 34.7875C54.7059 35.4644 55.0228 36.336 55.0058 37.2333V40.6571C55.9159 40.8472 56.755 41.287 57.4291 41.9274C58.1031 42.5677 58.5855 43.3832 58.8219 44.2823L61.6105 41.4938L62.3176 42.2009L59.0023 45.5162C59.0024 45.5299 59.0059 45.5427 59.0059 45.5565V48.8766C59.9043 48.7826 60.7436 48.3844 61.3848 47.7481L68.2249 40.908C68.713 40.4084 69.0556 39.7852 69.2157 39.1054C69.3759 38.4256 69.3475 37.715 69.1338 37.0501C68.943 36.4228 68.9263 35.7555 69.0854 35.1195C69.2445 34.4835 69.5734 33.9026 70.037 33.439L70.8909 32.5851L60.2843 21.9785L58.5563 23.7065Z" fill="black"/>
<path d="M58.5563 23.7065L55.865 23.5924C55.089 23.4829 54.2981 23.5552 53.5548 23.8036C52.8115 24.0521 52.1361 24.4699 51.5819 25.024L46.0774 30.5285L40.3239 24.775C39.8243 24.2869 39.2011 23.9443 38.5213 23.7842C37.8415 23.624 37.1309 23.6523 36.466 23.866C35.8388 24.0568 35.1715 24.0735 34.5355 23.9144C33.8994 23.7554 33.3186 23.4265 32.855 22.9629L32.0011 22.109L21.3945 32.7156L23.1225 34.4436L23.0084 37.1348C22.8988 37.9108 22.9712 38.7017 23.2196 39.445C23.468 40.1884 23.8858 40.8638 24.44 41.418L34.0524 51.0304C34.1809 49.7686 34.7855 48.6032 35.7431 47.7715L32.7482 44.7765L33.4553 44.0695L36.5835 47.1977C37.0269 46.9452 37.5067 46.7629 38.0059 46.6571V42.9632L36.2837 41.241L36.9908 40.5339L38.0059 41.5489V36.1991C37.9947 35.3148 38.3086 34.4572 38.8878 33.789C39.4671 33.1208 40.2715 32.6885 41.1484 32.5741C41.4792 32.542 41.8128 32.5571 42.1392 32.6189L40.9097 31.3894L41.6169 30.6823L43.413 32.4785C43.7311 31.8621 44.2232 31.3527 44.8283 31.0135C45.4333 30.6742 46.1246 30.5201 46.8164 30.5702C47.6513 30.6677 48.4258 31.0542 49.0056 31.6628C49.5854 32.2713 49.9341 33.0636 49.9912 33.9022C50.5595 33.632 51.1893 33.5175 51.8164 33.5702C52.7075 33.6768 53.5272 34.1107 54.1165 34.7875C54.7059 35.4644 55.0228 36.336 55.0058 37.2333V40.6571C55.9159 40.8472 56.755 41.287 57.4291 41.9274C58.1031 42.5677 58.5855 43.3832 58.8219 44.2823L61.6105 41.4938L62.3176 42.2009L59.0023 45.5162C59.0024 45.5299 59.0059 45.5427 59.0059 45.5565V48.8766C59.9043 48.7826 60.7436 48.3844 61.3848 47.7481L68.2249 40.908C68.713 40.4084 69.0556 39.7852 69.2157 39.1054C69.3759 38.4256 69.3475 37.715 69.1338 37.0501C68.943 36.4228 68.9263 35.7555 69.0854 35.1195C69.2445 34.4835 69.5734 33.9026 70.037 33.439L70.8909 32.5851L60.2843 21.9785L58.5563 23.7065Z" fill="url(#paint3_linear_6205_823)"/>
<path d="M43.8804 35.6896C43.8044 35.04 43.476 34.4463 42.966 34.0368C42.4559 33.6273 41.8053 33.4348 41.1546 33.501C40.5234 33.5881 39.9463 33.9041 39.5329 34.3889C39.1194 34.8738 38.8986 35.4936 38.9124 36.1306V47.488C37.8515 47.488 36.8341 47.9094 36.0839 48.6595C35.3338 49.4097 34.9124 50.4271 34.9124 51.488V61.1614C34.9205 61.8598 35.1189 62.5427 35.4864 63.1366C35.8538 63.7306 36.3763 64.213 36.9976 64.532C37.576 64.8407 38.0597 65.3007 38.3969 65.8629C38.7342 66.4251 38.9123 67.0684 38.9124 67.724V68.9316H53.9124V66.488L55.896 64.6656C56.5222 64.1943 57.0303 63.5839 57.3803 62.8827C57.7302 62.1814 57.9123 61.4083 57.9124 60.6246V45.488C57.9124 44.4271 57.4909 43.4097 56.7408 42.6595C55.9906 41.9094 54.9732 41.488 53.9124 41.488V37.1654C53.9293 36.5182 53.7062 35.8875 53.286 35.395C52.8657 34.9025 52.2781 34.5829 51.6362 34.4978C51.0063 34.4422 50.3787 34.628 49.8807 35.0178C49.3826 35.4075 49.0513 35.972 48.9539 36.5969H49.4124V52.0402H48.4124V36.5969H48.9124V34.1654C48.9293 33.5182 48.7062 32.8875 48.286 32.395C47.8657 31.9025 47.2781 31.5829 46.6362 31.4978C46.2904 31.4668 45.942 31.5081 45.613 31.6191C45.2841 31.7302 44.9819 31.9085 44.7256 32.1427C44.4694 32.377 44.2647 32.662 44.1247 32.9797C43.9847 33.2974 43.9124 33.6408 43.9124 33.988V35.6896H44.4124V51.133H43.4124V35.6896H43.8804ZM39.3115 56.0402H38.3115V48.0402H39.3115V56.0402ZM53.4124 41.7985H54.4124V52.2418H53.4124V41.7985Z" fill="black"/>
<path d="M43.8804 35.6896C43.8044 35.04 43.476 34.4463 42.966 34.0368C42.4559 33.6273 41.8053 33.4348 41.1546 33.501C40.5234 33.5881 39.9463 33.9041 39.5329 34.3889C39.1194 34.8738 38.8986 35.4936 38.9124 36.1306V47.488C37.8515 47.488 36.8341 47.9094 36.0839 48.6595C35.3338 49.4097 34.9124 50.4271 34.9124 51.488V61.1614C34.9205 61.8598 35.1189 62.5427 35.4864 63.1366C35.8538 63.7306 36.3763 64.213 36.9976 64.532C37.576 64.8407 38.0597 65.3007 38.3969 65.8629C38.7342 66.4251 38.9123 67.0684 38.9124 67.724V68.9316H53.9124V66.488L55.896 64.6656C56.5222 64.1943 57.0303 63.5839 57.3803 62.8827C57.7302 62.1814 57.9123 61.4083 57.9124 60.6246V45.488C57.9124 44.4271 57.4909 43.4097 56.7408 42.6595C55.9906 41.9094 54.9732 41.488 53.9124 41.488V37.1654C53.9293 36.5182 53.7062 35.8875 53.286 35.395C52.8657 34.9025 52.2781 34.5829 51.6362 34.4978C51.0063 34.4422 50.3787 34.628 49.8807 35.0178C49.3826 35.4075 49.0513 35.972 48.9539 36.5969H49.4124V52.0402H48.4124V36.5969H48.9124V34.1654C48.9293 33.5182 48.7062 32.8875 48.286 32.395C47.8657 31.9025 47.2781 31.5829 46.6362 31.4978C46.2904 31.4668 45.942 31.5081 45.613 31.6191C45.2841 31.7302 44.9819 31.9085 44.7256 32.1427C44.4694 32.377 44.2647 32.662 44.1247 32.9797C43.9847 33.2974 43.9124 33.6408 43.9124 33.988V35.6896H44.4124V51.133H43.4124V35.6896H43.8804ZM39.3115 56.0402H38.3115V48.0402H39.3115V56.0402ZM53.4124 41.7985H54.4124V52.2418H53.4124V41.7985Z" fill="url(#paint4_linear_6205_823)"/>
<defs>
<linearGradient id="paint0_linear_6205_823" x1="46.5057" y1="70" x2="46.5057" y2="76" gradientUnits="userSpaceOnUse">
<stop stop-color="#EF8080"/>
<stop offset="1" stop-color="#F0145A"/>
</linearGradient>
<linearGradient id="paint1_linear_6205_823" x1="22.4551" y1="23.1697" x2="25.9907" y2="26.7052" gradientUnits="userSpaceOnUse">
<stop stop-color="#EF8080"/>
<stop offset="1" stop-color="#F0145A"/>
</linearGradient>
<linearGradient id="paint2_linear_6205_823" x1="61.3449" y1="18.0897" x2="74.78" y2="31.5247" gradientUnits="userSpaceOnUse">
<stop stop-color="#EF8080"/>
<stop offset="1" stop-color="#F0145A"/>
</linearGradient>
<linearGradient id="paint3_linear_6205_823" x1="46.1427" y1="21.9785" x2="46.1427" y2="51.0304" gradientUnits="userSpaceOnUse">
<stop stop-color="#EF8080"/>
<stop offset="1" stop-color="#F0145A"/>
</linearGradient>
<linearGradient id="paint4_linear_6205_823" x1="46.4124" y1="31.4878" x2="46.4124" y2="68.9316" gradientUnits="userSpaceOnUse">
<stop stop-color="#EF8080"/>
<stop offset="1" stop-color="#F0145A"/>
</linearGradient>
</defs>
</svg>
