<svg width="92" height="92" viewBox="0 0 92 92" fill="none" xmlns="http://www.w3.org/2000/svg">
<rect width="92" height="92" rx="24" fill="white"/>
<path fill-rule="evenodd" clip-rule="evenodd" d="M67.4513 49.0767V66.3718C67.4513 69.4652 65.027 72.0002 62.0632 72.0002H29.9702C27.0064 72.0002 24.5822 69.4652 24.5822 66.3718V49.0767H41.2482V56.5875L46.0167 59.7209L50.7852 56.5875V49.0767H67.4513Z" fill="url(#paint0_linear_6205_801)"/>
<path fill-rule="evenodd" clip-rule="evenodd" d="M42.9185 49.0767V55.6851L46.0166 57.7207L49.1147 55.6851V49.0767H42.9185Z" fill="url(#paint1_linear_6205_801)"/>
<path fill-rule="evenodd" clip-rule="evenodd" d="M26.0734 29.1426H65.9599C67.8423 29.1426 69.3808 30.8507 69.3808 32.938V43.1912C69.3808 45.2786 67.8423 46.9867 65.9599 46.9867H50.314H41.7194H26.0734C24.191 46.9867 22.6526 45.2786 22.6526 43.1912V32.938C22.6526 30.8507 24.191 29.1426 26.0734 29.1426Z" fill="url(#paint2_linear_6205_801)"/>
<path fill-rule="evenodd" clip-rule="evenodd" d="M37.7119 19.9546H54.3214C55.8646 19.9546 57.1274 21.2174 57.1274 22.7605V27.1379H53.5699V24.5511C53.5699 23.8537 52.9998 23.2812 52.3024 23.2812H39.731C39.0336 23.2812 38.4635 23.8537 38.4635 24.5511V27.1379H34.9059V22.7605C34.9059 21.2174 36.1687 19.9546 37.7119 19.9546Z" fill="url(#paint3_linear_6205_801)"/>
<defs>
<linearGradient id="paint0_linear_6205_801" x1="46.0167" y1="49.0767" x2="46.0167" y2="72.0002" gradientUnits="userSpaceOnUse">
<stop stop-color="#EF8080"/>
<stop offset="1" stop-color="#F0145A"/>
</linearGradient>
<linearGradient id="paint1_linear_6205_801" x1="46.0166" y1="49.0767" x2="46.0166" y2="57.7207" gradientUnits="userSpaceOnUse">
<stop stop-color="#EF8080"/>
<stop offset="1" stop-color="#F0145A"/>
</linearGradient>
<linearGradient id="paint2_linear_6205_801" x1="46.0167" y1="29.1426" x2="46.0167" y2="46.9867" gradientUnits="userSpaceOnUse">
<stop stop-color="#EF8080"/>
<stop offset="1" stop-color="#F0145A"/>
</linearGradient>
<linearGradient id="paint3_linear_6205_801" x1="46.0167" y1="19.9546" x2="46.0167" y2="27.1379" gradientUnits="userSpaceOnUse">
<stop stop-color="#EF8080"/>
<stop offset="1" stop-color="#F0145A"/>
</linearGradient>
</defs>
</svg>
